<svg version="1.1" id="Layer_1" xmlns="http://www.w3.org/2000/svg" xmlns:xlink="http://www.w3.org/1999/xlink" x="0px" y="0px"
	 width="100%" viewBox="0 0 145 169" enable-background="new 0 0 145 169" xml:space="preserve">
<path fill="#FFFFFF" opacity="1.000000" stroke="none" 
	d="
M1.000000,44.000000 
	C1.000000,29.333336 1.000000,15.166670 1.000000,1.000004 
	C49.333328,1.000003 97.666656,1.000003 146.000000,1.000001 
	C146.000000,57.333317 146.000000,113.666634 146.000000,169.999969 
	C97.666687,169.999969 49.333374,169.999969 1.000030,169.999985 
	C1.000000,128.166672 1.000000,86.333336 1.000000,44.000000 
M128.790451,164.972046 
	C137.184433,166.309586 141.231216,161.361710 141.166321,152.966232 
	C140.815414,107.565575 141.004883,62.160778 140.995514,16.757410 
	C140.993820,8.568110 138.172821,5.888871 129.008316,6.008734 
	C125.373161,6.044479 121.738007,6.080224 117.156494,6.025946 
	C83.071480,6.056606 48.986458,6.087266 14.001066,6.008357 
	C11.404927,6.008357 8.808788,6.008357 6.115939,6.008357 
	C6.115939,9.312779 6.115939,12.104930 6.025940,15.843453 
	C6.056600,61.928493 6.087260,108.013535 6.008347,155.008545 
	C6.008347,158.273468 6.008347,161.538391 6.008347,164.878510 
	C47.018139,164.878510 87.463570,164.878510 128.790451,164.972046 
z"/>
<path fill="#AD9375" opacity="1.000000" stroke="none" 
	d="
M14.901441,6.117927 
	C48.986458,6.087266 83.071480,6.056606 117.749435,6.386836 
	C124.804131,9.637380 127.129028,14.585481 127.096642,21.649734 
	C126.901970,64.105522 126.836182,106.563889 127.157288,149.018143 
	C127.212387,156.303131 120.540314,163.268417 112.871521,163.164993 
	C82.907555,162.760895 52.932678,162.801239 22.967009,163.136475 
	C15.247861,163.222839 9.618683,161.068909 6.117919,154.098572 
	C6.087260,108.013535 6.056600,61.928493 6.387456,15.249166 
	C9.466462,11.809229 12.183951,8.963577 14.901441,6.117927 
M25.591774,11.000000 
	C24.925253,11.000000 24.248116,11.077661 23.593817,10.988240 
	C15.065635,9.822733 10.766491,15.063462 10.839199,23.591152 
	C11.194332,65.243423 10.996503,106.900368 11.004044,148.555664 
	C11.005095,154.366150 14.633920,157.994263 20.444502,157.995911 
	C51.102795,158.004654 81.761093,158.004044 112.419388,157.996582 
	C118.531937,157.995102 121.997246,154.440872 121.997849,148.191925 
	C122.001968,106.036766 122.003288,63.881603 121.996918,21.726444 
	C121.995796,14.268424 118.654167,11.003503 111.043503,11.002087 
	C82.884521,10.996844 54.725544,11.000000 25.591774,11.000000 
z"/>
<path fill="#000000" opacity="1.000000" stroke="none" 
	d="
M6.063133,154.553558 
	C9.618683,161.068909 15.247861,163.222839 22.967009,163.136475 
	C52.932678,162.801239 82.907555,162.760895 112.871521,163.164993 
	C120.540314,163.268417 127.212387,156.303131 127.157288,149.018143 
	C126.836182,106.563889 126.901970,64.105522 127.096642,21.649734 
	C127.129028,14.585481 124.804131,9.637380 118.222618,6.431848 
	C121.738007,6.080224 125.373161,6.044479 129.496109,6.447115 
	C130.441895,7.961096 130.869263,9.051003 131.363602,10.109643 
	C132.895355,13.390000 135.777496,16.649464 135.799805,19.932896 
	C136.098785,63.969063 135.942154,108.008125 136.096085,152.045792 
	C136.110321,156.117218 134.006241,158.783371 131.089584,159.697617 
	C127.813980,160.724380 128.066086,162.619766 127.909004,164.878510 
	C87.463570,164.878510 47.018139,164.878510 6.008347,164.878510 
	C6.008347,161.538391 6.008347,158.273468 6.063133,154.553558 
z"/>
<path fill="#AD9375" opacity="1.000000" stroke="none" 
	d="
M128.349731,164.925278 
	C128.066086,162.619766 127.813980,160.724380 131.089584,159.697617 
	C134.006241,158.783371 136.110321,156.117218 136.096085,152.045792 
	C135.942154,108.008125 136.098785,63.969063 135.799805,19.932896 
	C135.777496,16.649464 132.895355,13.390000 131.363602,10.109643 
	C130.869263,9.051003 130.441895,7.961096 129.946274,6.503412 
	C138.172821,5.888871 140.993820,8.568110 140.995514,16.757410 
	C141.004883,62.160778 140.815414,107.565575 141.166321,152.966232 
	C141.231216,161.361710 137.184433,166.309586 128.349731,164.925278 
z"/>
<path fill="#000000" opacity="1.000000" stroke="none" 
	d="
M14.451254,6.063142 
	C12.183951,8.963577 9.466462,11.809229 6.432456,14.775980 
	C6.115939,12.104930 6.115939,9.312779 6.115939,6.008357 
	C8.808788,6.008357 11.404927,6.008357 14.451254,6.063142 
z"/>
<path fill="#000000" opacity="1.000000" stroke="none" 
	d="
M26.079168,11.000000 
	C54.725544,11.000000 82.884521,10.996844 111.043503,11.002087 
	C118.654167,11.003503 121.995796,14.268424 121.996918,21.726444 
	C122.003288,63.881603 122.001968,106.036766 121.997849,148.191925 
	C121.997246,154.440872 118.531937,157.995102 112.419388,157.996582 
	C81.761093,158.004044 51.102795,158.004654 20.444502,157.995911 
	C14.633920,157.994263 11.005095,154.366150 11.004044,148.555664 
	C10.996503,106.900368 11.194332,65.243423 10.839199,23.591152 
	C10.766491,15.063462 15.065635,9.822733 23.593817,10.988240 
	C24.248116,11.077661 24.925253,11.000000 26.079168,11.000000 
M57.713665,93.014526 
	C62.483681,93.343315 67.282494,94.178284 72.018478,93.908859 
	C88.192299,92.988815 99.255569,79.921181 100.888275,65.454865 
	C103.301430,44.073452 86.981697,26.929893 66.386620,28.034246 
	C41.137020,29.388182 28.994211,52.921917 37.325695,74.644188 
	C40.840679,83.808609 48.074844,89.306419 57.713665,93.014526 
M84.905869,127.314163 
	C83.939537,130.039688 82.973206,132.765213 81.899216,135.794403 
	C83.939240,135.794403 85.572304,135.794403 87.231110,135.794403 
	C88.904129,132.261276 93.720650,130.629517 96.191193,132.731812 
	C98.054039,134.316986 100.034294,135.764191 101.962288,137.272797 
	C102.409996,136.864532 102.857697,136.456284 103.305405,136.048019 
	C100.639938,128.600204 98.042610,121.126289 95.214455,113.740776 
	C94.895454,112.907745 93.141617,111.969444 92.288086,112.155846 
	C91.131920,112.408340 89.714241,113.497940 89.264130,114.583199 
	C87.647659,118.480675 86.391106,122.527428 84.905869,127.314163 
M76.269455,122.089653 
	C73.510933,121.200706 70.752419,120.311752 67.993896,119.422798 
	C68.114334,118.678871 68.234772,117.934952 68.355209,117.191025 
	C71.198959,117.191025 74.042709,117.191025 77.342377,117.191025 
	C77.924202,116.516937 78.854851,115.438698 81.015854,112.935013 
	C75.712593,112.606949 71.708336,111.827263 67.848221,112.279091 
	C64.402145,112.682465 62.613449,118.001228 63.730381,121.417953 
	C64.993843,125.282906 67.765251,125.900078 71.269035,126.286385 
	C72.600861,126.433228 73.724083,128.472137 74.942383,129.648682 
	C73.186249,130.199844 71.447968,130.824081 69.663696,131.260071 
	C69.087158,131.400940 68.386307,130.924957 67.748390,130.943237 
	C65.909035,130.995926 64.072784,131.156754 62.235313,131.275101 
	C62.188549,132.231308 62.141785,133.187531 62.095016,134.143738 
	C65.593796,134.762375 69.144516,136.046677 72.574120,135.779053 
	C75.102997,135.581696 78.891365,133.864365 79.585678,131.919891 
	C80.650711,128.937164 81.307098,124.632622 76.269455,122.089653 
M38.089333,115.289139 
	C37.532673,110.952934 34.890438,111.766937 31.727518,112.642235 
	C34.390762,120.630524 36.943901,128.288544 39.821686,136.920334 
	C41.707085,135.708099 43.972794,135.088501 44.427345,133.819946 
	C46.925278,126.848724 48.979950,119.718674 51.179848,112.665329 
	C47.010002,110.952171 45.231655,112.524300 44.393364,116.103493 
	C43.655056,119.255836 42.633179,122.341766 41.623688,125.849037 
	C40.458500,122.177368 39.477444,119.085938 38.089333,115.289139 
M60.000000,127.445213 
	C60.000000,122.348549 60.000000,117.251884 60.000000,112.234222 
	C58.024731,112.234222 56.746357,112.234222 55.271690,112.234222 
	C55.271690,120.184723 55.271690,127.913483 55.271690,135.964615 
	C56.943863,135.873337 58.326382,135.797867 60.000000,135.706497 
	C60.000000,133.037460 60.000000,130.729141 60.000000,127.445213 
z"/>
<path fill="#AD9375" opacity="1.000000" stroke="none" 
	d="
M57.308468,92.980438 
	C48.074844,89.306419 40.840679,83.808609 37.325695,74.644188 
	C28.994211,52.921917 41.137020,29.388182 66.386620,28.034246 
	C86.981697,26.929893 103.301430,44.073452 100.888275,65.454865 
	C99.255569,79.921181 88.192299,92.988815 72.018478,93.908859 
	C67.282494,94.178284 62.483681,93.343315 57.308468,92.980438 
M88.718216,68.910164 
	C90.614960,69.263206 92.511703,69.616249 94.451874,69.977371 
	C96.694641,63.044899 96.827133,56.466473 93.461472,50.147427 
	C89.127853,51.355801 85.122871,52.472538 81.203835,53.565311 
	C81.203835,58.099567 81.203835,62.392239 81.203835,66.688400 
	C83.591187,67.322433 85.789612,67.906296 88.718216,68.910164 
M48.435333,53.012074 
	C46.110168,52.399117 43.785004,51.786156 40.716579,50.977261 
	C40.716579,57.713287 40.716579,64.149300 40.716579,70.789070 
	C45.123699,69.201767 48.908443,67.838623 51.867218,66.772972 
	C52.136883,62.333603 52.370834,58.482185 52.613998,54.479053 
	C51.630093,54.070286 50.443619,53.577362 48.435333,53.012074 
M59.661312,65.962799 
	C64.932487,65.692299 70.203659,65.421799 75.755508,65.136894 
	C75.755508,62.261333 75.755508,58.870983 75.755508,55.239880 
	C69.814484,55.239880 64.091507,55.239880 56.902973,55.239880 
	C57.586624,59.066174 58.196579,62.480003 59.661312,65.962799 
M73.912857,74.352013 
	C74.096962,73.386078 74.281067,72.420151 74.584518,70.828041 
	C69.426315,70.828041 64.292389,70.828041 57.793533,70.828041 
	C61.035686,76.857529 63.619267,81.662254 66.202843,86.466972 
	C66.732941,86.348183 67.263031,86.229393 67.793129,86.110603 
	C69.692490,82.409729 71.591850,78.708855 73.912857,74.352013 
M82.432404,85.049416 
	C85.734367,82.083511 89.036331,79.117599 93.088882,75.477501 
	C88.071289,73.971642 84.537270,72.911018 80.870285,71.810493 
	C78.079956,77.605804 75.382515,83.208176 72.326637,89.555008 
	C75.777016,88.120598 78.841293,86.846695 82.432404,85.049416 
M72.083336,43.306080 
	C70.539185,40.099205 68.995033,36.892330 67.450890,33.685455 
	C66.967926,33.748714 66.484962,33.811970 66.002007,33.875229 
	C63.562347,39.040916 61.122692,44.206608 58.452717,49.859970 
	C64.376976,49.859970 69.328171,49.859970 74.731873,49.859970 
	C73.940628,47.794186 73.209602,45.885601 72.083336,43.306080 
M53.997814,73.538788 
	C49.908123,71.471664 47.257809,74.765106 43.674316,75.541679 
	C48.066635,82.170540 53.424320,86.156670 60.542713,88.258644 
	C58.243298,83.295494 56.163620,78.806641 53.997814,73.538788 
M82.325500,47.988400 
	C84.885513,47.145775 87.445518,46.303150 90.588623,45.268600 
	C86.840240,38.580112 80.841545,36.212139 74.206375,33.530003 
	C75.987770,38.197617 77.374199,42.113251 79.015198,45.919125 
	C79.396461,46.803379 80.644882,47.313732 82.325500,47.988400 
M47.426468,42.056400 
	C46.501812,43.410122 45.577156,44.763840 44.475037,46.377377 
	C47.855583,47.453949 50.457111,48.282433 53.323578,49.195290 
	C55.222038,44.501297 57.045525,39.992676 58.869007,35.484058 
	C58.580479,35.147919 58.291946,34.811779 58.003418,34.475639 
	C54.657280,36.832390 51.311142,39.189144 47.426468,42.056400 
z"/>
<path fill="#E7272F" opacity="1.000000" stroke="none" 
	d="
M84.952194,126.915955 
	C86.391106,122.527428 87.647659,118.480675 89.264130,114.583199 
	C89.714241,113.497940 91.131920,112.408340 92.288086,112.155846 
	C93.141617,111.969444 94.895454,112.907745 95.214455,113.740776 
	C98.042610,121.126289 100.639938,128.600204 103.305405,136.048019 
	C102.857697,136.456284 102.409996,136.864532 101.962288,137.272797 
	C100.034294,135.764191 98.054039,134.316986 96.191193,132.731812 
	C93.720650,130.629517 88.904129,132.261276 87.231110,135.794403 
	C85.572304,135.794403 83.939240,135.794403 81.899216,135.794403 
	C82.973206,132.765213 83.939537,130.039688 84.952194,126.915955 
z"/>
<path fill="#E7272F" opacity="1.000000" stroke="none" 
	d="
M76.621590,122.283615 
	C81.307098,124.632622 80.650711,128.937164 79.585678,131.919891 
	C78.891365,133.864365 75.102997,135.581696 72.574120,135.779053 
	C69.144516,136.046677 65.593796,134.762375 62.095016,134.143738 
	C62.141785,133.187531 62.188549,132.231308 62.235313,131.275101 
	C64.072784,131.156754 65.909035,130.995926 67.748390,130.943237 
	C68.386307,130.924957 69.087158,131.400940 69.663696,131.260071 
	C71.447968,130.824081 73.186249,130.199844 74.942383,129.648682 
	C73.724083,128.472137 72.600861,126.433228 71.269035,126.286385 
	C67.765251,125.900078 64.993843,125.282906 63.730381,121.417953 
	C62.613449,118.001228 64.402145,112.682465 67.848221,112.279091 
	C71.708336,111.827263 75.712593,112.606949 81.015854,112.935013 
	C78.854851,115.438698 77.924202,116.516937 77.342377,117.191025 
	C74.042709,117.191025 71.198959,117.191025 68.355209,117.191025 
	C68.234772,117.934952 68.114334,118.678871 67.993896,119.422798 
	C70.752419,120.311752 73.510933,121.200706 76.621590,122.283615 
z"/>
<path fill="#E7272F" opacity="1.000000" stroke="none" 
	d="
M38.292862,115.641815 
	C39.477444,119.085938 40.458500,122.177368 41.623688,125.849037 
	C42.633179,122.341766 43.655056,119.255836 44.393364,116.103493 
	C45.231655,112.524300 47.010002,110.952171 51.179848,112.665329 
	C48.979950,119.718674 46.925278,126.848724 44.427345,133.819946 
	C43.972794,135.088501 41.707085,135.708099 39.821686,136.920334 
	C36.943901,128.288544 34.390762,120.630524 31.727518,112.642235 
	C34.890438,111.766937 37.532673,110.952934 38.292862,115.641815 
z"/>
<path fill="#E7272F" opacity="1.000000" stroke="none" 
	d="
M60.000000,127.933029 
	C60.000000,130.729141 60.000000,133.037460 60.000000,135.706497 
	C58.326382,135.797867 56.943863,135.873337 55.271690,135.964615 
	C55.271690,127.913483 55.271690,120.184723 55.271690,112.234222 
	C56.746357,112.234222 58.024731,112.234222 60.000000,112.234222 
	C60.000000,117.251884 60.000000,122.348549 60.000000,127.933029 
z"/>
<path fill="#000000" opacity="1.000000" stroke="none" 
	d="
M88.353127,68.700157 
	C85.789612,67.906296 83.591187,67.322433 81.203835,66.688400 
	C81.203835,62.392239 81.203835,58.099567 81.203835,53.565311 
	C85.122871,52.472538 89.127853,51.355801 93.461472,50.147427 
	C96.827133,56.466473 96.694641,63.044899 94.451874,69.977371 
	C92.511703,69.616249 90.614960,69.263206 88.353127,68.700157 
z"/>
<path fill="#000000" opacity="1.000000" stroke="none" 
	d="
M48.846237,53.048256 
	C50.443619,53.577362 51.630093,54.070286 52.613998,54.479053 
	C52.370834,58.482185 52.136883,62.333603 51.867218,66.772972 
	C48.908443,67.838623 45.123699,69.201767 40.716579,70.789070 
	C40.716579,64.149300 40.716579,57.713287 40.716579,50.977261 
	C43.785004,51.786156 46.110168,52.399117 48.846237,53.048256 
z"/>
<path fill="#000000" opacity="1.000000" stroke="none" 
	d="
M59.233925,65.928314 
	C58.196579,62.480003 57.586624,59.066174 56.902973,55.239880 
	C64.091507,55.239880 69.814484,55.239880 75.755508,55.239880 
	C75.755508,58.870983 75.755508,62.261333 75.755508,65.136894 
	C70.203659,65.421799 64.932487,65.692299 59.233925,65.928314 
z"/>
<path fill="#000000" opacity="1.000000" stroke="none" 
	d="
M73.702026,74.679993 
	C71.591850,78.708855 69.692490,82.409729 67.793129,86.110603 
	C67.263031,86.229393 66.732941,86.348183 66.202843,86.466972 
	C63.619267,81.662254 61.035686,76.857529 57.793533,70.828041 
	C64.292389,70.828041 69.426315,70.828041 74.584518,70.828041 
	C74.281067,72.420151 74.096962,73.386078 73.702026,74.679993 
z"/>
<path fill="#000000" opacity="1.000000" stroke="none" 
	d="
M82.168983,85.311104 
	C78.841293,86.846695 75.777016,88.120598 72.326637,89.555008 
	C75.382515,83.208176 78.079956,77.605804 80.870285,71.810493 
	C84.537270,72.911018 88.071289,73.971642 93.088882,75.477501 
	C89.036331,79.117599 85.734367,82.083511 82.168983,85.311104 
z"/>
<path fill="#000000" opacity="1.000000" stroke="none" 
	d="
M72.280960,43.641548 
	C73.209602,45.885601 73.940628,47.794186 74.731873,49.859970 
	C69.328171,49.859970 64.376976,49.859970 58.452717,49.859970 
	C61.122692,44.206608 63.562347,39.040916 66.002007,33.875229 
	C66.484962,33.811970 66.967926,33.748714 67.450890,33.685455 
	C68.995033,36.892330 70.539185,40.099205 72.280960,43.641548 
z"/>
<path fill="#000000" opacity="1.000000" stroke="none" 
	d="
M54.040878,73.928284 
	C56.163620,78.806641 58.243298,83.295494 60.542713,88.258644 
	C53.424320,86.156670 48.066635,82.170540 43.674316,75.541679 
	C47.257809,74.765106 49.908123,71.471664 54.040878,73.928284 
z"/>
<path fill="#000000" opacity="1.000000" stroke="none" 
	d="
M81.909897,47.992264 
	C80.644882,47.313732 79.396461,46.803379 79.015198,45.919125 
	C77.374199,42.113251 75.987770,38.197617 74.206375,33.530003 
	C80.841545,36.212139 86.840240,38.580112 90.588623,45.268600 
	C87.445518,46.303150 84.885513,47.145775 81.909897,47.992264 
z"/>
<path fill="#000000" opacity="1.000000" stroke="none" 
	d="
M47.695740,41.801147 
	C51.311142,39.189144 54.657280,36.832390 58.003418,34.475639 
	C58.291946,34.811779 58.580479,35.147919 58.869007,35.484058 
	C57.045525,39.992676 55.222038,44.501297 53.323578,49.195290 
	C50.457111,48.282433 47.855583,47.453949 44.475037,46.377377 
	C45.577156,44.763840 46.501812,43.410122 47.695740,41.801147 
z"/>
</svg>